<mxfile host="Electron" modified="2024-04-11T09:16:58.224Z" agent="Mozilla/5.0 (Windows NT 10.0; Win64; x64) AppleWebKit/537.36 (KHTML, like Gecko) draw.io/24.1.0 Chrome/120.0.6099.109 Electron/28.1.0 Safari/537.36" etag="yctcLHQnN9oh-qGt5sp9" version="24.1.0" type="device">
  <diagram name="Страница — 1" id="C1TSf-yvRN6W9BjyVppO">
    <mxGraphModel dx="1877" dy="629" grid="1" gridSize="10" guides="1" tooltips="1" connect="1" arrows="1" fold="1" page="1" pageScale="1" pageWidth="827" pageHeight="1169" math="0" shadow="0">
      <root>
        <mxCell id="0" />
        <mxCell id="1" parent="0" />
        <mxCell id="WcJIfIc3GjRccncXiNge-3" value="" style="group" parent="1" vertex="1" connectable="0">
          <mxGeometry x="320" y="280" width="150" height="76" as="geometry" />
        </mxCell>
        <mxCell id="WcJIfIc3GjRccncXiNge-1" value="0" style="shape=mxgraph.cisco.storage.cloud;sketch=0;html=1;pointerEvents=1;dashed=0;fillColor=#036897;strokeColor=#ffffff;strokeWidth=2;verticalLabelPosition=bottom;verticalAlign=top;align=center;outlineConnect=0;" parent="WcJIfIc3GjRccncXiNge-3" vertex="1">
          <mxGeometry width="150" height="76" as="geometry" />
        </mxCell>
        <mxCell id="WcJIfIc3GjRccncXiNge-2" value="&lt;font color=&quot;#ffffff&quot;&gt;Интернет&lt;/font&gt;" style="text;html=1;align=center;verticalAlign=middle;whiteSpace=wrap;rounded=0;" parent="WcJIfIc3GjRccncXiNge-3" vertex="1">
          <mxGeometry x="45" y="23" width="60" height="30" as="geometry" />
        </mxCell>
        <mxCell id="WcJIfIc3GjRccncXiNge-7" value="" style="shape=mxgraph.cisco.routers.atm_router;sketch=0;html=1;pointerEvents=1;dashed=0;fillColor=#036897;strokeColor=#ffffff;strokeWidth=2;verticalLabelPosition=bottom;verticalAlign=top;align=center;outlineConnect=0;" parent="1" vertex="1">
          <mxGeometry x="500" y="330" width="50" height="33" as="geometry" />
        </mxCell>
        <mxCell id="WcJIfIc3GjRccncXiNge-8" value="" style="shape=mxgraph.cisco.routers.atm_router;sketch=0;html=1;pointerEvents=1;dashed=0;fillColor=#036897;strokeColor=#ffffff;strokeWidth=2;verticalLabelPosition=bottom;verticalAlign=top;align=center;outlineConnect=0;" parent="1" vertex="1">
          <mxGeometry x="50" y="160" width="49" height="33" as="geometry" />
        </mxCell>
        <mxCell id="WcJIfIc3GjRccncXiNge-9" value="" style="shape=mxgraph.cisco.routers.atm_router;sketch=0;html=1;pointerEvents=1;dashed=0;fillColor=#036897;strokeColor=#ffffff;strokeWidth=2;verticalLabelPosition=bottom;verticalAlign=top;align=center;outlineConnect=0;" parent="1" vertex="1">
          <mxGeometry x="500" y="160" width="49" height="33" as="geometry" />
        </mxCell>
        <mxCell id="WcJIfIc3GjRccncXiNge-10" value="" style="endArrow=none;html=1;rounded=0;exitX=0.5;exitY=0.969;exitDx=0;exitDy=0;exitPerimeter=0;entryX=0.5;entryY=0.05;entryDx=0;entryDy=0;entryPerimeter=0;" parent="1" source="WcJIfIc3GjRccncXiNge-181" target="WcJIfIc3GjRccncXiNge-1" edge="1">
          <mxGeometry width="50" height="50" relative="1" as="geometry">
            <mxPoint x="395" y="253" as="sourcePoint" />
            <mxPoint x="395" y="80" as="targetPoint" />
          </mxGeometry>
        </mxCell>
        <mxCell id="WcJIfIc3GjRccncXiNge-11" value="" style="endArrow=none;html=1;rounded=0;entryX=0.12;entryY=0.9;entryDx=0;entryDy=0;entryPerimeter=0;exitX=0.538;exitY=0.1;exitDx=0;exitDy=0;exitPerimeter=0;" parent="1" source="WcJIfIc3GjRccncXiNge-140" target="WcJIfIc3GjRccncXiNge-8" edge="1">
          <mxGeometry width="50" height="50" relative="1" as="geometry">
            <mxPoint x="370" y="260" as="sourcePoint" />
            <mxPoint x="420" y="210" as="targetPoint" />
          </mxGeometry>
        </mxCell>
        <mxCell id="WcJIfIc3GjRccncXiNge-12" value="" style="endArrow=none;html=1;rounded=0;entryX=0.5;entryY=1;entryDx=0;entryDy=0;entryPerimeter=0;exitX=0.5;exitY=0;exitDx=0;exitDy=0;exitPerimeter=0;" parent="1" source="WcJIfIc3GjRccncXiNge-161" target="WcJIfIc3GjRccncXiNge-9" edge="1">
          <mxGeometry width="50" height="50" relative="1" as="geometry">
            <mxPoint x="370" y="260" as="sourcePoint" />
            <mxPoint x="420" y="210" as="targetPoint" />
            <Array as="points" />
          </mxGeometry>
        </mxCell>
        <mxCell id="WcJIfIc3GjRccncXiNge-15" value="" style="endArrow=none;html=1;rounded=0;exitX=0.5;exitY=0;exitDx=0;exitDy=0;exitPerimeter=0;" parent="1" source="WcJIfIc3GjRccncXiNge-141" target="WcJIfIc3GjRccncXiNge-33" edge="1">
          <mxGeometry width="50" height="50" relative="1" as="geometry">
            <mxPoint x="180" y="400" as="sourcePoint" />
            <mxPoint x="240" y="280" as="targetPoint" />
          </mxGeometry>
        </mxCell>
        <mxCell id="WcJIfIc3GjRccncXiNge-16" value="" style="endArrow=none;html=1;rounded=0;entryX=0.5;entryY=1;entryDx=0;entryDy=0;entryPerimeter=0;exitX=0.5;exitY=0;exitDx=0;exitDy=0;exitPerimeter=0;" parent="1" source="WcJIfIc3GjRccncXiNge-145" target="WcJIfIc3GjRccncXiNge-40" edge="1">
          <mxGeometry width="50" height="50" relative="1" as="geometry">
            <mxPoint x="110" y="480" as="sourcePoint" />
            <mxPoint x="90" y="440" as="targetPoint" />
          </mxGeometry>
        </mxCell>
        <mxCell id="WcJIfIc3GjRccncXiNge-17" value="" style="endArrow=none;html=1;rounded=0;entryX=0.5;entryY=1;entryDx=0;entryDy=0;entryPerimeter=0;" parent="1" source="WcJIfIc3GjRccncXiNge-143" target="WcJIfIc3GjRccncXiNge-37" edge="1">
          <mxGeometry width="50" height="50" relative="1" as="geometry">
            <mxPoint x="270" y="480" as="sourcePoint" />
            <mxPoint x="180" y="440" as="targetPoint" />
          </mxGeometry>
        </mxCell>
        <mxCell id="WcJIfIc3GjRccncXiNge-18" value="" style="endArrow=none;html=1;rounded=0;entryX=0.88;entryY=0.9;entryDx=0;entryDy=0;entryPerimeter=0;exitX=0.505;exitY=0.1;exitDx=0;exitDy=0;exitPerimeter=0;" parent="1" source="WcJIfIc3GjRccncXiNge-186" target="WcJIfIc3GjRccncXiNge-8" edge="1">
          <mxGeometry width="50" height="50" relative="1" as="geometry">
            <mxPoint x="160" y="310" as="sourcePoint" />
            <mxPoint x="210" y="260" as="targetPoint" />
          </mxGeometry>
        </mxCell>
        <mxCell id="WcJIfIc3GjRccncXiNge-20" value="" style="endArrow=none;html=1;rounded=0;entryX=0.5;entryY=1;entryDx=0;entryDy=0;entryPerimeter=0;" parent="1" source="WcJIfIc3GjRccncXiNge-162" target="WcJIfIc3GjRccncXiNge-34" edge="1">
          <mxGeometry width="50" height="50" relative="1" as="geometry">
            <mxPoint x="420" y="400" as="sourcePoint" />
            <mxPoint x="410" y="390" as="targetPoint" />
          </mxGeometry>
        </mxCell>
        <mxCell id="WcJIfIc3GjRccncXiNge-21" value="" style="endArrow=none;html=1;rounded=0;entryX=0.5;entryY=1;entryDx=0;entryDy=0;entryPerimeter=0;exitX=0.197;exitY=0.206;exitDx=0;exitDy=0;exitPerimeter=0;" parent="1" source="WcJIfIc3GjRccncXiNge-147" target="WcJIfIc3GjRccncXiNge-7" edge="1">
          <mxGeometry width="50" height="50" relative="1" as="geometry">
            <mxPoint x="593" y="384" as="sourcePoint" />
            <mxPoint x="589" y="436.5" as="targetPoint" />
          </mxGeometry>
        </mxCell>
        <mxCell id="WcJIfIc3GjRccncXiNge-22" value="" style="endArrow=none;html=1;rounded=0;exitX=0.83;exitY=0.246;exitDx=0;exitDy=0;exitPerimeter=0;" parent="1" source="WcJIfIc3GjRccncXiNge-147" target="WcJIfIc3GjRccncXiNge-38" edge="1">
          <mxGeometry width="50" height="50" relative="1" as="geometry">
            <mxPoint x="673" y="380" as="sourcePoint" />
            <mxPoint x="668.5" y="436.5" as="targetPoint" />
          </mxGeometry>
        </mxCell>
        <mxCell id="WcJIfIc3GjRccncXiNge-23" value="" style="endArrow=none;html=1;rounded=0;exitX=1;exitY=0.5;exitDx=0;exitDy=0;exitPerimeter=0;entryX=0;entryY=0.5;entryDx=0;entryDy=0;entryPerimeter=0;" parent="1" source="WcJIfIc3GjRccncXiNge-155" target="WcJIfIc3GjRccncXiNge-37" edge="1">
          <mxGeometry width="50" height="50" relative="1" as="geometry">
            <mxPoint x="110" y="353" as="sourcePoint" />
            <mxPoint x="250" y="350" as="targetPoint" />
          </mxGeometry>
        </mxCell>
        <mxCell id="WcJIfIc3GjRccncXiNge-24" value="" style="endArrow=none;html=1;rounded=0;entryX=0;entryY=0.5;entryDx=0;entryDy=0;entryPerimeter=0;exitX=0.73;exitY=0.85;exitDx=0;exitDy=0;exitPerimeter=0;" parent="1" source="WcJIfIc3GjRccncXiNge-157" target="WcJIfIc3GjRccncXiNge-38" edge="1">
          <mxGeometry width="50" height="50" relative="1" as="geometry">
            <mxPoint x="609" y="416.5" as="sourcePoint" />
            <mxPoint x="648.5" y="416.5" as="targetPoint" />
          </mxGeometry>
        </mxCell>
        <mxCell id="WcJIfIc3GjRccncXiNge-29" value="" style="endArrow=none;html=1;rounded=0;exitX=0.513;exitY=0.12;exitDx=0;exitDy=0;exitPerimeter=0;entryX=0.5;entryY=1;entryDx=0;entryDy=0;entryPerimeter=0;" parent="1" source="WcJIfIc3GjRccncXiNge-129" target="WcJIfIc3GjRccncXiNge-109" edge="1">
          <mxGeometry width="50" height="50" relative="1" as="geometry">
            <mxPoint x="110" y="590" as="sourcePoint" />
            <mxPoint x="110" y="520" as="targetPoint" />
          </mxGeometry>
        </mxCell>
        <mxCell id="WcJIfIc3GjRccncXiNge-30" value="" style="endArrow=none;html=1;rounded=0;entryX=0.5;entryY=1;entryDx=0;entryDy=0;entryPerimeter=0;exitX=0.532;exitY=0.12;exitDx=0;exitDy=0;exitPerimeter=0;" parent="1" source="WcJIfIc3GjRccncXiNge-132" target="WcJIfIc3GjRccncXiNge-110" edge="1">
          <mxGeometry width="50" height="50" relative="1" as="geometry">
            <mxPoint x="264.5" y="570" as="sourcePoint" />
            <mxPoint x="264.5" y="520" as="targetPoint" />
          </mxGeometry>
        </mxCell>
        <mxCell id="WcJIfIc3GjRccncXiNge-33" value="" style="shape=mxgraph.cisco.routers.atm_router;sketch=0;html=1;pointerEvents=1;dashed=0;fillColor=#036897;strokeColor=#ffffff;strokeWidth=2;verticalLabelPosition=bottom;verticalAlign=top;align=center;outlineConnect=0;" parent="1" vertex="1">
          <mxGeometry x="244.5" y="160" width="49" height="33" as="geometry" />
        </mxCell>
        <mxCell id="WcJIfIc3GjRccncXiNge-34" value="" style="shape=mxgraph.cisco.routers.atm_router;sketch=0;html=1;pointerEvents=1;dashed=0;fillColor=#036897;strokeColor=#ffffff;strokeWidth=2;verticalLabelPosition=bottom;verticalAlign=top;align=center;outlineConnect=0;" parent="1" vertex="1">
          <mxGeometry x="648.5" y="160" width="49" height="33" as="geometry" />
        </mxCell>
        <mxCell id="WcJIfIc3GjRccncXiNge-35" value="" style="endArrow=none;html=1;rounded=0;entryX=1;entryY=0.5;entryDx=0;entryDy=0;entryPerimeter=0;exitX=0;exitY=0.5;exitDx=0;exitDy=0;exitPerimeter=0;" parent="1" source="oh-fskXQ1IAl22mPcI55-20" target="WcJIfIc3GjRccncXiNge-109" edge="1">
          <mxGeometry width="50" height="50" relative="1" as="geometry">
            <mxPoint x="244.5" y="500" as="sourcePoint" />
            <mxPoint x="130" y="500" as="targetPoint" />
          </mxGeometry>
        </mxCell>
        <mxCell id="WcJIfIc3GjRccncXiNge-37" value="" style="shape=mxgraph.cisco.routers.atm_router;sketch=0;html=1;pointerEvents=1;dashed=0;fillColor=#036897;strokeColor=#ffffff;strokeWidth=2;verticalLabelPosition=bottom;verticalAlign=top;align=center;outlineConnect=0;" parent="1" vertex="1">
          <mxGeometry x="244.5" y="330" width="49" height="33" as="geometry" />
        </mxCell>
        <mxCell id="WcJIfIc3GjRccncXiNge-38" value="" style="shape=mxgraph.cisco.routers.atm_router;sketch=0;html=1;pointerEvents=1;dashed=0;fillColor=#036897;strokeColor=#ffffff;strokeWidth=2;verticalLabelPosition=bottom;verticalAlign=top;align=center;outlineConnect=0;" parent="1" vertex="1">
          <mxGeometry x="649" y="330" width="49" height="33" as="geometry" />
        </mxCell>
        <mxCell id="WcJIfIc3GjRccncXiNge-40" value="" style="shape=mxgraph.cisco.routers.atm_router;sketch=0;html=1;pointerEvents=1;dashed=0;fillColor=#036897;strokeColor=#ffffff;strokeWidth=2;verticalLabelPosition=bottom;verticalAlign=top;align=center;outlineConnect=0;" parent="1" vertex="1">
          <mxGeometry x="50" y="329.5" width="49" height="33.5" as="geometry" />
        </mxCell>
        <mxCell id="WcJIfIc3GjRccncXiNge-42" value="" style="endArrow=none;html=1;rounded=0;exitX=0.8;exitY=0.8;exitDx=0;exitDy=0;exitPerimeter=0;entryX=0.12;entryY=0.1;entryDx=0;entryDy=0;entryPerimeter=0;" parent="1" source="WcJIfIc3GjRccncXiNge-179" target="WcJIfIc3GjRccncXiNge-33" edge="1">
          <mxGeometry width="50" height="50" relative="1" as="geometry">
            <mxPoint x="350" y="240" as="sourcePoint" />
            <mxPoint x="400" y="190" as="targetPoint" />
          </mxGeometry>
        </mxCell>
        <mxCell id="WcJIfIc3GjRccncXiNge-43" value="" style="endArrow=none;html=1;rounded=0;exitX=0.8;exitY=0.8;exitDx=0;exitDy=0;exitPerimeter=0;entryX=0.12;entryY=0.1;entryDx=0;entryDy=0;entryPerimeter=0;" parent="1" source="WcJIfIc3GjRccncXiNge-168" target="WcJIfIc3GjRccncXiNge-34" edge="1">
          <mxGeometry width="50" height="50" relative="1" as="geometry">
            <mxPoint x="543.5" y="176" as="sourcePoint" />
            <mxPoint x="648.5" y="176" as="targetPoint" />
          </mxGeometry>
        </mxCell>
        <mxCell id="WcJIfIc3GjRccncXiNge-90" value="" style="shape=mxgraph.cisco.routers.atm_router;sketch=0;html=1;pointerEvents=1;dashed=0;fillColor=#036897;strokeColor=#ffffff;strokeWidth=2;verticalLabelPosition=bottom;verticalAlign=top;align=center;outlineConnect=0;" parent="1" vertex="1">
          <mxGeometry x="807.75" y="160" width="49" height="33" as="geometry" />
        </mxCell>
        <mxCell id="WcJIfIc3GjRccncXiNge-91" value="" style="shape=mxgraph.cisco.routers.atm_router;sketch=0;html=1;pointerEvents=1;dashed=0;fillColor=#036897;strokeColor=#ffffff;strokeWidth=2;verticalLabelPosition=bottom;verticalAlign=top;align=center;outlineConnect=0;" parent="1" vertex="1">
          <mxGeometry x="962.25" y="160" width="49" height="33" as="geometry" />
        </mxCell>
        <mxCell id="WcJIfIc3GjRccncXiNge-93" value="" style="endArrow=none;html=1;rounded=0;entryX=0.5;entryY=1;entryDx=0;entryDy=0;entryPerimeter=0;exitX=0.099;exitY=0.315;exitDx=0;exitDy=0;exitPerimeter=0;" parent="1" source="WcJIfIc3GjRccncXiNge-138" target="WcJIfIc3GjRccncXiNge-103" edge="1">
          <mxGeometry width="50" height="50" relative="1" as="geometry">
            <mxPoint x="832.25" y="380" as="sourcePoint" />
            <mxPoint x="812.25" y="445" as="targetPoint" />
          </mxGeometry>
        </mxCell>
        <mxCell id="WcJIfIc3GjRccncXiNge-94" value="" style="endArrow=none;html=1;rounded=0;entryX=0.5;entryY=1;entryDx=0;entryDy=0;entryPerimeter=0;exitX=0.839;exitY=0.175;exitDx=0;exitDy=0;exitPerimeter=0;" parent="1" source="WcJIfIc3GjRccncXiNge-138" target="WcJIfIc3GjRccncXiNge-101" edge="1">
          <mxGeometry width="50" height="50" relative="1" as="geometry">
            <mxPoint x="986.75" y="380" as="sourcePoint" />
            <mxPoint x="902.25" y="445" as="targetPoint" />
          </mxGeometry>
        </mxCell>
        <mxCell id="WcJIfIc3GjRccncXiNge-95" value="" style="endArrow=none;html=1;rounded=0;exitX=0.8;exitY=0.8;exitDx=0;exitDy=0;exitPerimeter=0;entryX=0;entryY=0.5;entryDx=0;entryDy=0;entryPerimeter=0;" parent="1" source="WcJIfIc3GjRccncXiNge-159" target="WcJIfIc3GjRccncXiNge-101" edge="1">
          <mxGeometry width="50" height="50" relative="1" as="geometry">
            <mxPoint x="832.25" y="358" as="sourcePoint" />
            <mxPoint x="972.25" y="355" as="targetPoint" />
          </mxGeometry>
        </mxCell>
        <mxCell id="WcJIfIc3GjRccncXiNge-101" value="" style="shape=mxgraph.cisco.routers.atm_router;sketch=0;html=1;pointerEvents=1;dashed=0;fillColor=#036897;strokeColor=#ffffff;strokeWidth=2;verticalLabelPosition=bottom;verticalAlign=top;align=center;outlineConnect=0;" parent="1" vertex="1">
          <mxGeometry x="962.25" y="335.5" width="49" height="33" as="geometry" />
        </mxCell>
        <mxCell id="WcJIfIc3GjRccncXiNge-102" value="" style="endArrow=none;html=1;rounded=0;exitX=1;exitY=0.5;exitDx=0;exitDy=0;exitPerimeter=0;entryX=0;entryY=0.5;entryDx=0;entryDy=0;entryPerimeter=0;" parent="1" target="WcJIfIc3GjRccncXiNge-103" edge="1">
          <mxGeometry width="50" height="50" relative="1" as="geometry">
            <mxPoint x="832.25" y="358" as="sourcePoint" />
            <mxPoint x="882.25" y="358" as="targetPoint" />
          </mxGeometry>
        </mxCell>
        <mxCell id="WcJIfIc3GjRccncXiNge-103" value="" style="shape=mxgraph.cisco.routers.atm_router;sketch=0;html=1;pointerEvents=1;dashed=0;fillColor=#036897;strokeColor=#ffffff;strokeWidth=2;verticalLabelPosition=bottom;verticalAlign=top;align=center;outlineConnect=0;" parent="1" vertex="1">
          <mxGeometry x="807.75" y="335.5" width="49" height="33.5" as="geometry" />
        </mxCell>
        <mxCell id="WcJIfIc3GjRccncXiNge-106" value="" style="endArrow=none;html=1;rounded=0;" parent="1" source="WcJIfIc3GjRccncXiNge-172" target="WcJIfIc3GjRccncXiNge-90" edge="1">
          <mxGeometry width="50" height="50" relative="1" as="geometry">
            <mxPoint x="920" y="171" as="sourcePoint" />
            <mxPoint x="830" y="171" as="targetPoint" />
          </mxGeometry>
        </mxCell>
        <mxCell id="WcJIfIc3GjRccncXiNge-107" value="" style="endArrow=none;html=1;rounded=0;entryX=0.5;entryY=1;entryDx=0;entryDy=0;entryPerimeter=0;exitX=0.5;exitY=0;exitDx=0;exitDy=0;exitPerimeter=0;" parent="1" source="WcJIfIc3GjRccncXiNge-164" target="WcJIfIc3GjRccncXiNge-90" edge="1">
          <mxGeometry width="50" height="50" relative="1" as="geometry">
            <mxPoint x="832" y="330" as="sourcePoint" />
            <mxPoint x="831.75" y="205" as="targetPoint" />
          </mxGeometry>
        </mxCell>
        <mxCell id="WcJIfIc3GjRccncXiNge-108" value="" style="endArrow=none;html=1;rounded=0;entryX=0.5;entryY=1;entryDx=0;entryDy=0;entryPerimeter=0;" parent="1" source="WcJIfIc3GjRccncXiNge-166" edge="1">
          <mxGeometry width="50" height="50" relative="1" as="geometry">
            <mxPoint x="987" y="335" as="sourcePoint" />
            <mxPoint x="986.5" y="188" as="targetPoint" />
          </mxGeometry>
        </mxCell>
        <mxCell id="WcJIfIc3GjRccncXiNge-109" value="" style="shape=mxgraph.cisco.routers.atm_router;sketch=0;html=1;pointerEvents=1;dashed=0;fillColor=#036897;strokeColor=#ffffff;strokeWidth=2;verticalLabelPosition=bottom;verticalAlign=top;align=center;outlineConnect=0;" parent="1" vertex="1">
          <mxGeometry x="50" y="493" width="49" height="33.5" as="geometry" />
        </mxCell>
        <mxCell id="WcJIfIc3GjRccncXiNge-110" value="" style="shape=mxgraph.cisco.routers.atm_router;sketch=0;html=1;pointerEvents=1;dashed=0;fillColor=#036897;strokeColor=#ffffff;strokeWidth=2;verticalLabelPosition=bottom;verticalAlign=top;align=center;outlineConnect=0;" parent="1" vertex="1">
          <mxGeometry x="244.5" y="493.5" width="49" height="33" as="geometry" />
        </mxCell>
        <mxCell id="WcJIfIc3GjRccncXiNge-111" value="" style="endArrow=none;html=1;rounded=0;exitX=0.2;exitY=0.863;exitDx=0;exitDy=0;exitPerimeter=0;entryX=0.88;entryY=0.1;entryDx=0;entryDy=0;entryPerimeter=0;" parent="1" source="WcJIfIc3GjRccncXiNge-170" target="WcJIfIc3GjRccncXiNge-34" edge="1">
          <mxGeometry width="50" height="50" relative="1" as="geometry">
            <mxPoint x="803" y="176" as="sourcePoint" />
            <mxPoint x="698" y="176" as="targetPoint" />
          </mxGeometry>
        </mxCell>
        <mxCell id="WcJIfIc3GjRccncXiNge-129" value="10.16.5.0/24" style="ellipse;shape=cloud;whiteSpace=wrap;html=1;" parent="1" vertex="1">
          <mxGeometry x="14.5" y="570" width="120" height="80" as="geometry" />
        </mxCell>
        <mxCell id="WcJIfIc3GjRccncXiNge-132" value="10.16.6&lt;span style=&quot;background-color: initial;&quot;&gt;.0/24&lt;/span&gt;" style="ellipse;shape=cloud;whiteSpace=wrap;html=1;" parent="1" vertex="1">
          <mxGeometry x="204.5" y="575" width="120" height="80" as="geometry" />
        </mxCell>
        <mxCell id="WcJIfIc3GjRccncXiNge-138" value="10.16.3.0/24" style="ellipse;shape=cloud;whiteSpace=wrap;html=1;" parent="1" vertex="1">
          <mxGeometry x="860" y="445" width="120" height="80" as="geometry" />
        </mxCell>
        <mxCell id="WcJIfIc3GjRccncXiNge-142" value="" style="endArrow=none;html=1;rounded=0;exitX=0.5;exitY=0;exitDx=0;exitDy=0;exitPerimeter=0;" parent="1" source="WcJIfIc3GjRccncXiNge-37" target="WcJIfIc3GjRccncXiNge-141" edge="1">
          <mxGeometry width="50" height="50" relative="1" as="geometry">
            <mxPoint x="269" y="330" as="sourcePoint" />
            <mxPoint x="269" y="193" as="targetPoint" />
          </mxGeometry>
        </mxCell>
        <mxCell id="WcJIfIc3GjRccncXiNge-141" value="100.16.2.0/24" style="ellipse;shape=cloud;whiteSpace=wrap;html=1;" parent="1" vertex="1">
          <mxGeometry x="209" y="220" width="120" height="80" as="geometry" />
        </mxCell>
        <mxCell id="WcJIfIc3GjRccncXiNge-144" value="" style="endArrow=none;html=1;rounded=0;entryX=0.495;entryY=0.97;entryDx=0;entryDy=0;entryPerimeter=0;exitX=0.5;exitY=0;exitDx=0;exitDy=0;exitPerimeter=0;" parent="1" source="WcJIfIc3GjRccncXiNge-110" target="WcJIfIc3GjRccncXiNge-143" edge="1">
          <mxGeometry width="50" height="50" relative="1" as="geometry">
            <mxPoint x="268" y="480" as="sourcePoint" />
            <mxPoint x="269" y="363" as="targetPoint" />
          </mxGeometry>
        </mxCell>
        <mxCell id="WcJIfIc3GjRccncXiNge-143" value="10.16.3.0/24" style="ellipse;shape=cloud;whiteSpace=wrap;html=1;" parent="1" vertex="1">
          <mxGeometry x="209" y="390" width="120" height="80" as="geometry" />
        </mxCell>
        <mxCell id="WcJIfIc3GjRccncXiNge-146" value="" style="endArrow=none;html=1;rounded=0;entryX=0.5;entryY=1;entryDx=0;entryDy=0;entryPerimeter=0;exitX=0.5;exitY=0;exitDx=0;exitDy=0;exitPerimeter=0;" parent="1" source="WcJIfIc3GjRccncXiNge-109" target="WcJIfIc3GjRccncXiNge-145" edge="1">
          <mxGeometry width="50" height="50" relative="1" as="geometry">
            <mxPoint x="110" y="480" as="sourcePoint" />
            <mxPoint x="110" y="364" as="targetPoint" />
          </mxGeometry>
        </mxCell>
        <mxCell id="WcJIfIc3GjRccncXiNge-145" value="10.16.2.0/24" style="ellipse;shape=cloud;whiteSpace=wrap;html=1;" parent="1" vertex="1">
          <mxGeometry x="14.5" y="380" width="120" height="80" as="geometry" />
        </mxCell>
        <mxCell id="WcJIfIc3GjRccncXiNge-147" value="10.16.16.0/24&lt;div&gt;10.16.17.0/24&lt;/div&gt;" style="ellipse;shape=cloud;whiteSpace=wrap;html=1;" parent="1" vertex="1">
          <mxGeometry x="533" y="383.5" width="120" height="80" as="geometry" />
        </mxCell>
        <mxCell id="WcJIfIc3GjRccncXiNge-156" value="" style="endArrow=none;html=1;rounded=0;exitX=1;exitY=0.5;exitDx=0;exitDy=0;exitPerimeter=0;entryX=0;entryY=0.5;entryDx=0;entryDy=0;entryPerimeter=0;" parent="1" source="WcJIfIc3GjRccncXiNge-40" target="WcJIfIc3GjRccncXiNge-155" edge="1">
          <mxGeometry width="50" height="50" relative="1" as="geometry">
            <mxPoint x="135" y="347" as="sourcePoint" />
            <mxPoint x="245" y="347" as="targetPoint" />
          </mxGeometry>
        </mxCell>
        <mxCell id="WcJIfIc3GjRccncXiNge-155" value="10.16.1.0/24" style="ellipse;shape=cloud;whiteSpace=wrap;html=1;" parent="1" vertex="1">
          <mxGeometry x="130" y="316.31" width="90" height="59.88" as="geometry" />
        </mxCell>
        <mxCell id="WcJIfIc3GjRccncXiNge-158" value="" style="endArrow=none;html=1;rounded=0;entryX=0.21;entryY=0.822;entryDx=0;entryDy=0;entryPerimeter=0;exitX=1;exitY=0.5;exitDx=0;exitDy=0;exitPerimeter=0;" parent="1" source="WcJIfIc3GjRccncXiNge-7" target="WcJIfIc3GjRccncXiNge-157" edge="1">
          <mxGeometry width="50" height="50" relative="1" as="geometry">
            <mxPoint x="549" y="347" as="sourcePoint" />
            <mxPoint x="649" y="347" as="targetPoint" />
          </mxGeometry>
        </mxCell>
        <mxCell id="WcJIfIc3GjRccncXiNge-157" value="20.16.1.0/24" style="ellipse;shape=cloud;whiteSpace=wrap;html=1;" parent="1" vertex="1">
          <mxGeometry x="550" y="280" width="100" height="56.44" as="geometry" />
        </mxCell>
        <mxCell id="WcJIfIc3GjRccncXiNge-160" value="" style="endArrow=none;html=1;rounded=0;exitX=1;exitY=0.5;exitDx=0;exitDy=0;exitPerimeter=0;entryX=0.13;entryY=0.77;entryDx=0;entryDy=0;entryPerimeter=0;" parent="1" source="WcJIfIc3GjRccncXiNge-103" target="WcJIfIc3GjRccncXiNge-159" edge="1">
          <mxGeometry width="50" height="50" relative="1" as="geometry">
            <mxPoint x="857" y="352" as="sourcePoint" />
            <mxPoint x="962" y="352" as="targetPoint" />
          </mxGeometry>
        </mxCell>
        <mxCell id="WcJIfIc3GjRccncXiNge-159" value="30.16.1.0/24" style="ellipse;shape=cloud;whiteSpace=wrap;html=1;" parent="1" vertex="1">
          <mxGeometry x="860" y="290.18" width="102.25" height="55.63" as="geometry" />
        </mxCell>
        <mxCell id="WcJIfIc3GjRccncXiNge-163" value="" style="endArrow=none;html=1;rounded=0;entryX=0.5;entryY=1;entryDx=0;entryDy=0;entryPerimeter=0;" parent="1" source="WcJIfIc3GjRccncXiNge-38" target="WcJIfIc3GjRccncXiNge-162" edge="1">
          <mxGeometry width="50" height="50" relative="1" as="geometry">
            <mxPoint x="673" y="330" as="sourcePoint" />
            <mxPoint x="673" y="193" as="targetPoint" />
          </mxGeometry>
        </mxCell>
        <mxCell id="WcJIfIc3GjRccncXiNge-162" value="100.16.4.0/24" style="ellipse;shape=cloud;whiteSpace=wrap;html=1;fillColor=default;" parent="1" vertex="1">
          <mxGeometry x="613" y="220" width="120" height="80" as="geometry" />
        </mxCell>
        <mxCell id="WcJIfIc3GjRccncXiNge-165" value="" style="endArrow=none;html=1;rounded=0;entryX=0.5;entryY=1;entryDx=0;entryDy=0;entryPerimeter=0;exitX=0.5;exitY=0;exitDx=0;exitDy=0;exitPerimeter=0;" parent="1" source="WcJIfIc3GjRccncXiNge-103" target="WcJIfIc3GjRccncXiNge-164" edge="1">
          <mxGeometry width="50" height="50" relative="1" as="geometry">
            <mxPoint x="832" y="336" as="sourcePoint" />
            <mxPoint x="832" y="193" as="targetPoint" />
          </mxGeometry>
        </mxCell>
        <mxCell id="WcJIfIc3GjRccncXiNge-164" value="100.16.5.0/24" style="ellipse;shape=cloud;whiteSpace=wrap;html=1;fillColor=default;" parent="1" vertex="1">
          <mxGeometry x="772.25" y="220" width="120" height="80" as="geometry" />
        </mxCell>
        <mxCell id="WcJIfIc3GjRccncXiNge-167" value="" style="endArrow=none;html=1;rounded=0;entryX=0.5;entryY=1;entryDx=0;entryDy=0;entryPerimeter=0;" parent="1" target="WcJIfIc3GjRccncXiNge-166" edge="1">
          <mxGeometry width="50" height="50" relative="1" as="geometry">
            <mxPoint x="987" y="335" as="sourcePoint" />
            <mxPoint x="986.5" y="188" as="targetPoint" />
          </mxGeometry>
        </mxCell>
        <mxCell id="WcJIfIc3GjRccncXiNge-166" value="100.16.6.0/24" style="ellipse;shape=cloud;whiteSpace=wrap;html=1;fillColor=default;" parent="1" vertex="1">
          <mxGeometry x="926.75" y="220" width="120" height="80" as="geometry" />
        </mxCell>
        <mxCell id="WcJIfIc3GjRccncXiNge-169" value="" style="endArrow=none;html=1;rounded=0;exitX=0.88;exitY=0.1;exitDx=0;exitDy=0;exitPerimeter=0;entryX=0.198;entryY=0.852;entryDx=0;entryDy=0;entryPerimeter=0;" parent="1" source="WcJIfIc3GjRccncXiNge-9" target="WcJIfIc3GjRccncXiNge-168" edge="1">
          <mxGeometry width="50" height="50" relative="1" as="geometry">
            <mxPoint x="549" y="177" as="sourcePoint" />
            <mxPoint x="649" y="177" as="targetPoint" />
          </mxGeometry>
        </mxCell>
        <mxCell id="WcJIfIc3GjRccncXiNge-168" value="30.16.3.0/24" style="ellipse;shape=cloud;whiteSpace=wrap;html=1;" parent="1" vertex="1">
          <mxGeometry x="543" y="80" width="110" height="73.22" as="geometry" />
        </mxCell>
        <mxCell id="WcJIfIc3GjRccncXiNge-171" value="" style="endArrow=none;html=1;rounded=0;exitX=0.12;exitY=0.1;exitDx=0;exitDy=0;exitPerimeter=0;entryX=0.884;entryY=0.798;entryDx=0;entryDy=0;entryPerimeter=0;" parent="1" source="WcJIfIc3GjRccncXiNge-90" target="WcJIfIc3GjRccncXiNge-170" edge="1">
          <mxGeometry width="50" height="50" relative="1" as="geometry">
            <mxPoint x="808" y="177" as="sourcePoint" />
            <mxPoint x="698" y="176" as="targetPoint" />
          </mxGeometry>
        </mxCell>
        <mxCell id="WcJIfIc3GjRccncXiNge-170" value="30.16.4.0/24" style="ellipse;shape=cloud;whiteSpace=wrap;html=1;" parent="1" vertex="1">
          <mxGeometry x="687.75" y="80" width="120" height="73.22" as="geometry" />
        </mxCell>
        <mxCell id="WcJIfIc3GjRccncXiNge-173" value="" style="endArrow=none;html=1;rounded=0;" parent="1" source="WcJIfIc3GjRccncXiNge-91" target="WcJIfIc3GjRccncXiNge-172" edge="1">
          <mxGeometry width="50" height="50" relative="1" as="geometry">
            <mxPoint x="962" y="177" as="sourcePoint" />
            <mxPoint x="857" y="177" as="targetPoint" />
          </mxGeometry>
        </mxCell>
        <mxCell id="WcJIfIc3GjRccncXiNge-172" value="30.16.5.0/24" style="ellipse;shape=cloud;whiteSpace=wrap;html=1;" parent="1" vertex="1">
          <mxGeometry x="852.25" y="81.53" width="110" height="66.94" as="geometry" />
        </mxCell>
        <mxCell id="WcJIfIc3GjRccncXiNge-176" value="" style="endArrow=none;html=1;rounded=0;exitX=0;exitY=0.5;exitDx=0;exitDy=0;exitPerimeter=0;entryX=0.875;entryY=0.5;entryDx=0;entryDy=0;entryPerimeter=0;" parent="1" source="WcJIfIc3GjRccncXiNge-9" target="WcJIfIc3GjRccncXiNge-181" edge="1">
          <mxGeometry width="50" height="50" relative="1" as="geometry">
            <mxPoint x="500" y="177" as="sourcePoint" />
            <mxPoint x="488" y="136" as="targetPoint" />
          </mxGeometry>
        </mxCell>
        <mxCell id="WcJIfIc3GjRccncXiNge-178" value="" style="endArrow=none;html=1;rounded=0;entryX=0.107;entryY=0.526;entryDx=0;entryDy=0;entryPerimeter=0;exitX=1;exitY=0.5;exitDx=0;exitDy=0;exitPerimeter=0;" parent="1" source="WcJIfIc3GjRccncXiNge-33" target="WcJIfIc3GjRccncXiNge-181" edge="1">
          <mxGeometry width="50" height="50" relative="1" as="geometry">
            <mxPoint x="294" y="177" as="sourcePoint" />
            <mxPoint x="300" y="102.36000000000001" as="targetPoint" />
          </mxGeometry>
        </mxCell>
        <mxCell id="WcJIfIc3GjRccncXiNge-180" value="" style="endArrow=none;html=1;rounded=0;exitX=0.88;exitY=0.1;exitDx=0;exitDy=0;exitPerimeter=0;entryX=0.204;entryY=0.834;entryDx=0;entryDy=0;entryPerimeter=0;" parent="1" source="WcJIfIc3GjRccncXiNge-8" target="WcJIfIc3GjRccncXiNge-179" edge="1">
          <mxGeometry width="50" height="50" relative="1" as="geometry">
            <mxPoint x="135" y="177" as="sourcePoint" />
            <mxPoint x="245" y="177" as="targetPoint" />
          </mxGeometry>
        </mxCell>
        <mxCell id="WcJIfIc3GjRccncXiNge-179" value="30.16.1.0/24" style="ellipse;shape=cloud;whiteSpace=wrap;html=1;" parent="1" vertex="1">
          <mxGeometry x="120" y="74.28" width="100" height="74" as="geometry" />
        </mxCell>
        <mxCell id="WcJIfIc3GjRccncXiNge-181" value="30.16.2.0/24" style="ellipse;shape=cloud;whiteSpace=wrap;html=1;" parent="1" vertex="1">
          <mxGeometry x="340" y="139.5" width="110" height="74" as="geometry" />
        </mxCell>
        <mxCell id="WcJIfIc3GjRccncXiNge-184" value="" style="endArrow=none;html=1;rounded=0;entryX=0.55;entryY=0.95;entryDx=0;entryDy=0;entryPerimeter=0;exitX=0.12;exitY=0.1;exitDx=0;exitDy=0;exitPerimeter=0;" parent="1" source="WcJIfIc3GjRccncXiNge-40" target="WcJIfIc3GjRccncXiNge-140" edge="1">
          <mxGeometry width="50" height="50" relative="1" as="geometry">
            <mxPoint x="91" y="333" as="sourcePoint" />
            <mxPoint x="91" y="190" as="targetPoint" />
          </mxGeometry>
        </mxCell>
        <mxCell id="WcJIfIc3GjRccncXiNge-140" value="100.16.1.0/24" style="ellipse;shape=cloud;whiteSpace=wrap;html=1;fillColor=default;" parent="1" vertex="1">
          <mxGeometry x="-50" y="220" width="120" height="80" as="geometry" />
        </mxCell>
        <mxCell id="WcJIfIc3GjRccncXiNge-187" value="" style="endArrow=none;html=1;rounded=0;entryX=0.498;entryY=0.93;entryDx=0;entryDy=0;entryPerimeter=0;exitX=0.88;exitY=0.1;exitDx=0;exitDy=0;exitPerimeter=0;" parent="1" source="WcJIfIc3GjRccncXiNge-40" target="WcJIfIc3GjRccncXiNge-186" edge="1">
          <mxGeometry width="50" height="50" relative="1" as="geometry">
            <mxPoint x="129" y="333" as="sourcePoint" />
            <mxPoint x="129" y="190" as="targetPoint" />
          </mxGeometry>
        </mxCell>
        <mxCell id="WcJIfIc3GjRccncXiNge-186" value="100.16.15.0/24" style="ellipse;shape=cloud;whiteSpace=wrap;html=1;fillColor=default;" parent="1" vertex="1">
          <mxGeometry x="70" y="220" width="120" height="80" as="geometry" />
        </mxCell>
        <mxCell id="WcJIfIc3GjRccncXiNge-189" value="" style="endArrow=none;html=1;rounded=0;entryX=0.5;entryY=1;entryDx=0;entryDy=0;entryPerimeter=0;exitX=0.5;exitY=0;exitDx=0;exitDy=0;exitPerimeter=0;" parent="1" source="WcJIfIc3GjRccncXiNge-7" target="WcJIfIc3GjRccncXiNge-161" edge="1">
          <mxGeometry width="50" height="50" relative="1" as="geometry">
            <mxPoint x="525" y="330" as="sourcePoint" />
            <mxPoint x="525" y="193" as="targetPoint" />
            <Array as="points" />
          </mxGeometry>
        </mxCell>
        <mxCell id="WcJIfIc3GjRccncXiNge-161" value="100.16.3.0/24" style="ellipse;shape=cloud;whiteSpace=wrap;html=1;fillColor=default;" parent="1" vertex="1">
          <mxGeometry x="464.5" y="223" width="120" height="80" as="geometry" />
        </mxCell>
        <mxCell id="WcJIfIc3GjRccncXiNge-195" value="&lt;div&gt;GRE&lt;/div&gt;4.25.16.0/30" style="ellipse;shape=cloud;whiteSpace=wrap;html=1;fillColor=#dae8fc;strokeColor=#6c8ebf;" parent="1" vertex="1">
          <mxGeometry x="543" y="480.06" width="131" height="74" as="geometry" />
        </mxCell>
        <mxCell id="WcJIfIc3GjRccncXiNge-199" value="" style="endArrow=none;dashed=1;html=1;rounded=0;exitX=0.089;exitY=0.622;exitDx=0;exitDy=0;exitPerimeter=0;fillColor=#dae8fc;strokeColor=#6c8ebf;entryX=0.88;entryY=0.9;entryDx=0;entryDy=0;entryPerimeter=0;" parent="1" source="WcJIfIc3GjRccncXiNge-195" target="WcJIfIc3GjRccncXiNge-110" edge="1">
          <mxGeometry width="50" height="50" relative="1" as="geometry">
            <mxPoint x="510" y="470" as="sourcePoint" />
            <mxPoint x="560" y="420" as="targetPoint" />
          </mxGeometry>
        </mxCell>
        <mxCell id="WcJIfIc3GjRccncXiNge-214" value="" style="endArrow=none;dashed=1;html=1;rounded=0;exitX=0.12;exitY=0.9;exitDx=0;exitDy=0;exitPerimeter=0;fillColor=#dae8fc;strokeColor=#6c8ebf;entryX=0.931;entryY=0.578;entryDx=0;entryDy=0;entryPerimeter=0;" parent="1" source="WcJIfIc3GjRccncXiNge-103" target="WcJIfIc3GjRccncXiNge-195" edge="1">
          <mxGeometry width="50" height="50" relative="1" as="geometry">
            <mxPoint x="813.6300000000001" y="514.76" as="sourcePoint" />
            <mxPoint x="685.75" y="730" as="targetPoint" />
          </mxGeometry>
        </mxCell>
        <mxCell id="oh-fskXQ1IAl22mPcI55-2" value="R16-1" style="text;html=1;align=center;verticalAlign=middle;whiteSpace=wrap;rounded=0;" parent="1" vertex="1">
          <mxGeometry x="44.5" y="140.5" width="60" height="30" as="geometry" />
        </mxCell>
        <mxCell id="oh-fskXQ1IAl22mPcI55-3" value="R16-2" style="text;html=1;align=center;verticalAlign=middle;whiteSpace=wrap;rounded=0;" parent="1" vertex="1">
          <mxGeometry x="239" y="140.5" width="60" height="30" as="geometry" />
        </mxCell>
        <mxCell id="oh-fskXQ1IAl22mPcI55-5" value="R16-3" style="text;html=1;align=center;verticalAlign=middle;whiteSpace=wrap;rounded=0;" parent="1" vertex="1">
          <mxGeometry x="490" y="139.5" width="60" height="30" as="geometry" />
        </mxCell>
        <mxCell id="oh-fskXQ1IAl22mPcI55-6" value="R16-4" style="text;html=1;align=center;verticalAlign=middle;whiteSpace=wrap;rounded=0;" parent="1" vertex="1">
          <mxGeometry x="643" y="140.5" width="60" height="30" as="geometry" />
        </mxCell>
        <mxCell id="oh-fskXQ1IAl22mPcI55-7" value="R16-5" style="text;html=1;align=center;verticalAlign=middle;whiteSpace=wrap;rounded=0;" parent="1" vertex="1">
          <mxGeometry x="802.25" y="140.5" width="60" height="30" as="geometry" />
        </mxCell>
        <mxCell id="oh-fskXQ1IAl22mPcI55-8" value="R16-6" style="text;html=1;align=center;verticalAlign=middle;whiteSpace=wrap;rounded=0;" parent="1" vertex="1">
          <mxGeometry x="956.75" y="140.5" width="60" height="30" as="geometry" />
        </mxCell>
        <mxCell id="oh-fskXQ1IAl22mPcI55-9" value="R16-7" style="text;html=1;align=center;verticalAlign=middle;whiteSpace=wrap;rounded=0;" parent="1" vertex="1">
          <mxGeometry x="70" y="350.5" width="60" height="30" as="geometry" />
        </mxCell>
        <mxCell id="oh-fskXQ1IAl22mPcI55-10" value="R16-8" style="text;html=1;align=center;verticalAlign=middle;whiteSpace=wrap;rounded=0;" parent="1" vertex="1">
          <mxGeometry x="280" y="333" width="60" height="30" as="geometry" />
        </mxCell>
        <mxCell id="oh-fskXQ1IAl22mPcI55-11" value="R16-9" style="text;html=1;align=center;verticalAlign=middle;whiteSpace=wrap;rounded=0;" parent="1" vertex="1">
          <mxGeometry x="10" y="485" width="60" height="30" as="geometry" />
        </mxCell>
        <mxCell id="oh-fskXQ1IAl22mPcI55-12" value="R16-10" style="text;html=1;align=center;verticalAlign=middle;whiteSpace=wrap;rounded=0;" parent="1" vertex="1">
          <mxGeometry x="269" y="470" width="60" height="30" as="geometry" />
        </mxCell>
        <mxCell id="oh-fskXQ1IAl22mPcI55-13" value="R16-11" style="text;html=1;align=center;verticalAlign=middle;whiteSpace=wrap;rounded=0;" parent="1" vertex="1">
          <mxGeometry x="472.5" y="310.5" width="60" height="30" as="geometry" />
        </mxCell>
        <mxCell id="oh-fskXQ1IAl22mPcI55-14" value="R16-12" style="text;html=1;align=center;verticalAlign=middle;whiteSpace=wrap;rounded=0;" parent="1" vertex="1">
          <mxGeometry x="663.5" y="310.5" width="60" height="30" as="geometry" />
        </mxCell>
        <mxCell id="oh-fskXQ1IAl22mPcI55-15" value="R16-13" style="text;html=1;align=center;verticalAlign=middle;whiteSpace=wrap;rounded=0;" parent="1" vertex="1">
          <mxGeometry x="780" y="310.5" width="60" height="30" as="geometry" />
        </mxCell>
        <mxCell id="oh-fskXQ1IAl22mPcI55-16" value="R16-14" style="text;html=1;align=center;verticalAlign=middle;whiteSpace=wrap;rounded=0;" parent="1" vertex="1">
          <mxGeometry x="986.75" y="316.31" width="60" height="30" as="geometry" />
        </mxCell>
        <mxCell id="oh-fskXQ1IAl22mPcI55-21" value="" style="endArrow=none;html=1;rounded=0;entryX=1;entryY=0.5;entryDx=0;entryDy=0;entryPerimeter=0;exitX=0;exitY=0.5;exitDx=0;exitDy=0;exitPerimeter=0;" parent="1" source="WcJIfIc3GjRccncXiNge-110" target="oh-fskXQ1IAl22mPcI55-20" edge="1">
          <mxGeometry width="50" height="50" relative="1" as="geometry">
            <mxPoint x="245" y="510" as="sourcePoint" />
            <mxPoint x="99" y="510" as="targetPoint" />
          </mxGeometry>
        </mxCell>
        <mxCell id="oh-fskXQ1IAl22mPcI55-20" value="10.16.4.0/24" style="ellipse;shape=cloud;whiteSpace=wrap;html=1;" parent="1" vertex="1">
          <mxGeometry x="125" y="480.06" width="90" height="59.88" as="geometry" />
        </mxCell>
      </root>
    </mxGraphModel>
  </diagram>
</mxfile>
